<?xml version="1.0" encoding="UTF-8"?>
<svg id="Layer_1" xmlns="http://www.w3.org/2000/svg" viewBox="0 0 332 324">
  <path fill="#136b03" d="M164.04,38.91c68.43-.1,124.51,55.59,124.65,123.76.14,68.66-55.94,125.51-123.8,125.52-69.21,0-125.36-55.65-125.43-124.33-.08-69.36,55.25-124.85,124.58-124.95ZM132.36,147.51c-1.29-1.37-2.5-.8-3.52-.5-11.63,3.5-19.31,11.25-22.74,22.71-12.53,36.97,28.39,71.73,63.24,55.07,15.99-7.07,25.64-20.26,32.63-35.68,6.65-14.66,13.31-29.31,21.16-43.39,2.1-3.76,3.87-4.33,6.95-1.01,4.14,4.46,8.57,8.64,12.95,12.87,1.06,1.03,2.22,2.65,4,1.55,2.91-1.98.33-6.74-.71-9.22-3.08-6.36-6.08-12.77-9.44-18.99-1.88-3.49-1.95-6.35.26-9.8,3.49-5.46,6.37-11.32,7.37-17.84.28-1.85.8-4.21-1.43-5.25-1.85-.86-3.32.68-4.67,1.78-3.87,3.15-7.17,7.06-8.99,11.52-3.23,7.96-9,9.83-16.8,9.56-5.85-.21-11.74.68-17.62,1.04-2.33.15-4.67.93-5.09,3.23-.53,2.94,2.55,2.41,4.16,2.92,5.62,1.75,11.29,3.37,17.01,4.78,3.75.93,5.05,2.6,2.96,6.21-9.65,16.69-19.61,33.18-33.78,46.53-9.15,8.63-19.73,14.4-32.9,12.96-10.9-1.19-19.35-6.42-24.22-16.42-4.66-9.57-4.13-18.96,2.04-27.89,1.91-2.77,4.78-4.49,7.19-6.74ZM163.87,156.62c5.54-12.17.35-28.33-11.2-35.98-17.98-11.9-43.9-7.1-58.72,10.89-28.31,34.16-12.61,85.09,29.86,97.69.74.15,1.64.99,2.36-.24-20.24-12.22-30.59-29.5-27.63-53.5,2.75-22.31,23.63-38.84,44.18-35.15,9.71,1.75,16.6,7.37,21.17,16.28ZM127.91,163.27c-4.84,13.65,5.09,27.07,19.62,29.18,16.87,2.45,37.03-16.19,43.33-29.92-8.23,7.37-15.73,14.61-25.51,18.71-17.86,7.5-31.43,1.3-37.43-17.98Z"/>
</svg>
